# xmcd
#
# Track frame offsets: 
#        150
#        17788
#        32703
#        44865
#        55903
#        66738
#        78208
#        92890
#        111338
#        125260
#        139440
#        150783
#        163495
#        177253
#
# Disc length: 2583 seconds
#
# Revision: 0
# Processed by: cddbd v1.5.2PL0 Copyright (c) Steve Scherf et al.
# Submitted via: ExactAudioCopy v0.99pb5
#
DISCID=c90a150e
DTITLE=Billy Stewart - Billy Stewart
DYEAR=1900
DGENRE=Soul
TTITLE0=Over The Rainbow
TTITLE1=Temptation 'Bout To Get Me
TTITLE2=Summertime
TTITLE3=Keep Lovin'
TTITLE4=Strange Feeling
TTITLE5=We'll Always Be Together
TTITLE6=Why Do I Love You So?
TTITLE7=Moon River
TTITLE8=Secret Love
TTITLE9=Cross My Heart
TTITLE10=Reap What You Sow
TTITLE11=Fat Boy
TTITLE12=I Do Love You
TTITLE13=Sitting In The Park
EXTD=
EXTT0=
EXTT1=
EXTT2=
EXTT3=
EXTT4=
EXTT5=
EXTT6=
EXTT7=
EXTT8=
EXTT9=
EXTT10=
EXTT11=
EXTT12=
EXTT13=
PLAYORDER=
